<?xml version="1.0" encoding="utf-8"?>
<!-- Generator: Adobe Illustrator 21.0.0, SVG Export Plug-In . SVG Version: 6.00 Build 0)  -->
<svg version="1.1" id="Calque_1" xmlns="http://www.w3.org/2000/svg" xmlns:xlink="http://www.w3.org/1999/xlink" x="0px" y="0px"
	 viewBox="0 0 45.8 90" style="enable-background:new 0 0 45.8 90;" xml:space="preserve">
<style type="text/css">
	.st0{fill:#FFFFFF;}
</style>
<g>
	<path class="st0" d="M45.5,45.9c0-0.1,0.1-0.1,0.1-0.2c0-0.1,0-0.1,0.1-0.2c0-0.1,0-0.1,0.1-0.2c0-0.1,0-0.1,0-0.2
		c0-0.1,0-0.1,0-0.2s0-0.1,0-0.2c0-0.1,0-0.1,0-0.2c0-0.1,0-0.1-0.1-0.2c0-0.1,0-0.1-0.1-0.2c0-0.1-0.1-0.1-0.1-0.2
		c0-0.1-0.1-0.1-0.1-0.2c0-0.1-0.1-0.1-0.1-0.2c0,0-0.1-0.1-0.1-0.1L3.4,0.6c-0.8-0.8-2-0.8-2.8,0s-0.8,2,0,2.8L41,45L0.6,86.6
		c-0.8,0.8-0.8,2.1,0,2.8C1,89.8,1.5,90,2,90c0.5,0,1-0.2,1.4-0.6l41.8-43c0,0,0.1-0.1,0.1-0.1c0-0.1,0.1-0.1,0.1-0.2
		C45.5,46,45.5,46,45.5,45.9z"/>
</g>
</svg>
