<?xml version="1.0" encoding="utf-8"?>
<!-- Generator: Adobe Illustrator 21.0.0, SVG Export Plug-In . SVG Version: 6.00 Build 0)  -->
<svg version="1.1" id="Calque_1" xmlns="http://www.w3.org/2000/svg" xmlns:xlink="http://www.w3.org/1999/xlink" x="0px" y="0px"
	 viewBox="0 0 231.8 89" style="enable-background:new 0 0 231.8 89;" xml:space="preserve">
<style type="text/css">
	.st0{fill:#575756;}
	.st1{fill:none;}
	.st2{opacity:0.5;clip-path:url(#SVGID_2_);fill:#1D1D1B;}
</style>
<g>
	<path class="st0" d="M25.1,30.1c1.3-0.1,3.1,4.2,3.6,5.2c0.4,0,0.7,0.1,1.1,0.2c1.3,0.3,2.4,0.7,3.4,1.3c1,0.6,1.8,1.5,2.4,2.5
		c0.6,1,0.9,2.3,1,3.8c0,0.8,0,1.6-0.1,2.3c-0.1,0.7-0.4,1.3-0.7,1.9c-0.3,0.5-0.8,1-1.3,1.3c-0.6,0.3-1.2,0.5-2,0.5
		c-0.5,0-1.1,0-1.7-0.2c-0.7-0.2-1.3-0.6-1.9-1.3c0.4-0.2,0.7-0.5,1-0.9c0.3-0.4,0.6-0.9,0.9-1.4c0.2-0.5,0.4-1.1,0.6-1.7
		c0.1-0.6,0.2-1.2,0.2-1.9c0-0.5-0.1-1-0.3-1.4c-0.2-0.5-0.4-0.9-0.7-1.2c-0.3-0.3-0.7-0.6-1.2-0.8c-0.5-0.2-1.1-0.3-1.8-0.2
		c-1.2,0.1-2.3,0.5-3.3,1.4c-1.1,0.9-2,2.1-3,3.6c-0.9,1.5-1.7,3.3-2.4,5.2c-0.7,2-1.3,4.1-1.8,6.3c-0.5,2.2-0.8,4.5-1.1,6.8
		c-0.2,2.3-0.3,4.5-0.2,6.7c0.1,1.5,0.2,2.8,0.5,4c0.3,1.2,0.7,2.2,1.3,3c0.6,0.8,1.4,1.5,2.4,1.9c1,0.4,2.3,0.6,3.8,0.6
		c2.5-0.1,4.8-0.8,6.8-2c2-1.1,3.6-2.7,5-4.6L40.7,39l9.3-1.7l-2.7,16c0.6-0.8,1.3-1.4,1.9-1.9c0.6-0.5,1.3-0.9,1.9-1.1
		c0.6-0.3,1.2-0.5,1.8-0.6c0.6-0.1,1.1-0.2,1.6-0.2c1,0,1.9,0,2.8,0.3c0.9,0.2,1.6,0.6,2.3,1.2c0.7,0.5,1.2,1.3,1.6,2.2
		c0.4,0.9,0.6,2,0.7,3.2c0,0.8,0,1.8-0.1,2.7c-0.1,1-0.3,2-0.4,3c-0.2,1-0.4,2-0.6,3.1c-0.2,1-0.4,2-0.6,2.9
		c-0.2,0.9-0.3,1.8-0.5,2.6c-0.1,0.8-0.2,1.5-0.1,2.1c0,0.8,0.2,1.4,0.6,1.9c0.4,0.5,1.1,0.7,2,0.6c0.7,0,1.3-0.2,1.8-0.5
		c0.5-0.3,0.9-0.7,1.3-1.2c0.4-0.5,0.7-1.1,1-1.8c0.1-0.1,0.1-0.3,0.2-0.4c0-0.1,0-0.2,0-0.3c-0.1-1.4,0-3,0.2-4.6
		c0.2-1.7,0.6-3.3,1.1-5c0.5-1.7,1.2-3.3,2-4.8c0.8-1.5,1.8-2.9,3-4.1c1.1-1.2,2.5-2.2,4-3c1.5-0.8,3.1-1.2,5-1.3
		c1.8-0.1,3.1,0.2,3.9,0.7c0.8,0.6,1.3,1.3,1.3,2.2l0,0.5l0.5-3.4l9.1-0.4L93,69.5c-0.1,0.4-0.1,0.7-0.2,1c0,0.3,0,0.7,0,1
		c0.1,1.8,1,2.7,2.7,2.6c0.6,0,1.2-0.2,1.7-0.6c0.5-0.3,1-0.8,1.4-1.3c0.4-0.6,0.8-1.2,1.1-1.9c0.3-0.7,0.5-1.5,0.7-2.3l3-17.9
		l-2.1,0.1l0.4-2.5l2.1-0.1l1.5-8.8l9.3-1.7l-1.7,10.1l3.8-0.2l-0.4,2.5l-3.8,0.2l-3.2,19.1c-0.1,0.4-0.1,0.7-0.2,1c0,0.3,0,0.7,0,1
		c0,0.9,0.3,1.5,0.7,1.8c0.4,0.3,1.1,0.5,2,0.4c0.6,0,1.2-0.2,1.8-0.5c0.6-0.3,1.1-0.7,1.6-1.2s0.9-1.1,1.2-1.8c0-0.1,0-0.1,0.1-0.2
		c0-0.2,0-0.3,0-0.5c-0.1-1.2,0-2.6,0.2-4.2c0.2-1.6,0.5-3.2,1-4.9c0.5-1.7,1.1-3.3,2-5c0.8-1.6,1.8-3.1,3.1-4.4
		c1.2-1.3,2.7-2.4,4.3-3.2c1.6-0.8,3.5-1.3,5.7-1.4c5.4-0.2,8.2,3,8.5,9.7l0,0.1c0.1,0,0.2,0.1,0.3,0c0.1,0,0.2,0,0.4,0
		c0.7,0,1.5-0.2,2.4-0.4c0.8-0.3,1.7-0.6,2.5-1c0.1,0,0.1-0.1,0.2-0.1c0.1-0.2,0.1-0.3,0.2-0.5c0.8-1.6,1.8-3.1,3.1-4.4
		c1.2-1.3,2.7-2.4,4.3-3.2c1.6-0.8,3.6-1.3,5.7-1.4c5.4-0.2,8.2,3,8.5,9.7l0,0.1c0.1,0,0.2,0.1,0.3,0c0.1,0,0.2,0,0.4,0
		c0.7,0,1.5-0.2,2.4-0.4c0.8-0.3,1.7-0.6,2.5-1c0,0,0,0,0.1,0l1.4-8.5l9.1-0.4l-0.5,3.3c0.6-0.8,1.3-1.4,1.9-1.9
		c0.6-0.5,1.3-0.9,1.9-1.1c0.6-0.3,1.2-0.5,1.8-0.6c0.6-0.1,1.1-0.2,1.6-0.2c1,0,1.9,0,2.8,0.3c0.9,0.2,1.6,0.6,2.3,1.2
		c0.7,0.5,1.2,1.3,1.6,2.2c0.4,0.9,0.6,2,0.7,3.2c0,0.8,0,1.8-0.1,2.7c-0.1,1-0.3,2-0.4,3c-0.2,1-0.4,2-0.6,3.1
		c-0.2,1-0.4,2-0.6,2.9c-0.2,0.9-0.3,1.8-0.5,2.6c-0.1,0.8-0.2,1.5-0.1,2.1c0,0.8,0.2,1.4,0.6,1.9c0.4,0.5,1.1,0.9,2.1,0.9
		c0,0,0.4,0,1.1,0c0.6,0,1.3-0.1,2.2-0.2c3.7-0.6,9.3-5,9.7-11.2c0.6-8.4,3.9-12.7,8-12.9c0.7,0,1.5,0.1,2.3,0.3
		c6.6,2,4.8,15.6-2.9,22.1c-6.7,5.7-11.1,7.4-25,8c-0.2,0-0.3,0-0.4,0c-1,0-1.9-0.1-2.6-0.5c-0.8-0.4-1.5-0.9-2-1.5
		c-0.5-0.6-0.9-1.4-1.1-2.2c-0.2-0.8-0.4-1.7-0.4-2.6c0-1.1,0-2.3,0.3-3.8c0.2-1.4,0.5-2.9,0.8-4.4c0.3-1.5,0.5-3,0.8-4.4
		c0.2-1.4,0.3-2.6,0.3-3.6c-0.1-2.2-0.9-3.2-2.4-3.1c-0.6,0-1.1,0.2-1.6,0.5c-0.5,0.3-0.9,0.8-1.3,1.3c-0.4,0.5-0.7,1.2-1,1.9
		c-0.3,0.7-0.5,1.5-0.8,2.3l-3.4,20.4l-9.1,0.4l3.4-20.4c-1.6,0.7-3.4,1.3-5.2,1.7c-0.1,2.9-0.6,5.6-1.3,8c-0.8,2.4-1.8,4.4-3,6.1
		c-1.3,1.7-2.7,3-4.4,4c-1.7,1-3.5,1.5-5.4,1.6c-1.5,0.1-2.8-0.1-4.1-0.4c-1.3-0.3-2.4-0.8-3.3-1.6c-0.9-0.7-1.7-1.7-2.2-3
		c-0.6-1.2-0.9-2.8-1-4.6c-0.1-1.2,0-2.6,0.2-4.2c0.2-1.6,0.5-3.2,1-4.9c0.1-0.4,0.2-0.8,0.4-1.2c-1.4,0.6-2.9,1.1-4.5,1.4
		c-0.1,2.9-0.6,5.6-1.3,8c-0.8,2.4-1.8,4.4-3,6.1c-1.3,1.7-2.7,3-4.4,4c-1.7,1-3.5,1.5-5.4,1.6c-1.5,0.1-2.8-0.1-4.1-0.4
		c-1.3-0.3-2.4-0.8-3.3-1.6c-0.9-0.7-1.7-1.7-2.2-3c0-0.1-0.1-0.2-0.1-0.3c-0.4,0.7-0.8,1.3-1.3,1.8c-0.8,0.9-1.5,1.6-2.3,2.2
		c-0.8,0.6-1.6,1-2.4,1.3c-0.8,0.3-1.5,0.6-2.2,0.7c-0.7,0.1-1.3,0.2-1.9,0.2c-0.9,0-1.8-0.1-2.7-0.3c-0.8-0.3-1.6-0.7-2.2-1.3
		c-0.6-0.6-1.1-1.3-1.5-2.3c-0.2-0.4-0.3-0.9-0.4-1.4c-0.3,0.6-0.7,1.1-1.1,1.5c-0.7,0.9-1.4,1.6-2.2,2.2c-0.8,0.6-1.5,1-2.2,1.3
		c-0.7,0.3-1.4,0.5-2.1,0.7c-0.7,0.1-1.3,0.2-1.8,0.2c-1.8,0.1-3.2-0.3-4.3-1.3c-1.1-0.9-1.8-2.3-2.1-4.2c-0.5,0.7-1,1.5-1.6,2.2
		c-0.6,0.7-1.2,1.4-2,1.9c-0.7,0.6-1.6,1.1-2.5,1.4c-0.9,0.4-1.9,0.6-3.1,0.6c-1.1,0-2.1-0.1-3.2-0.4c-1-0.3-1.9-0.8-2.8-1.6
		c-0.8-0.8-1.5-1.8-2-3.1c0,0,0-0.1-0.1-0.1c0,0,0,0,0,0.1c-0.9,1.6-1.9,2.8-2.9,3.7c-1,0.9-2,1.4-3,1.7c-1,0.3-1.9,0.5-2.7,0.5
		c-1.4,0.1-2.6-0.1-3.5-0.4c-1-0.4-1.7-0.9-2.3-1.5c-0.6-0.6-1.1-1.4-1.3-2.2c-0.3-0.8-0.5-1.7-0.5-2.6c0-1.1,0-2.3,0.3-3.8
		c0.2-1.4,0.5-2.9,0.8-4.4c0.3-1.5,0.5-3,0.8-4.4c0.2-1.4,0.3-2.6,0.3-3.6c-0.1-2.2-0.9-3.2-2.4-3.1c-0.6,0-1.1,0.2-1.6,0.5
		c-0.5,0.3-0.9,0.8-1.3,1.3c-0.4,0.5-0.7,1.2-1,1.9c-0.3,0.7-0.6,1.5-0.8,2.3l-3.4,20.4l-9.1,0.4l1-6.2c-0.2,0.3-0.4,0.6-0.6,0.8
		c-1.4,1.6-2.9,2.8-4.5,3.8c-1.6,1-3.3,1.8-5,2.3c-1.7,0.5-3.3,0.8-4.8,0.9c-2.3,0.1-4.4-0.1-6.1-0.6c-1.7-0.5-3.2-1.3-4.4-2.5
		c-1.2-1.2-2.1-2.7-2.8-4.7c-0.7-1.9-1-4.3-1.2-7.2c-0.1-1.4,0-3,0.1-4.7c0.1-1.7,0.3-3.5,0.6-5.3c0.3-1.8,0.7-3.7,1.2-5.5
		c0.5-1.9,1.2-3.6,2-5.4c0.8-1.7,1.7-3.4,2.8-4.9c0.4-0.6,0.8-1.1,1.3-1.7l0,0c0,0-1.9-4.3-1.7-6.5c0-0.4,0.2-0.6,0.6-0.6
		c1.4-0.1,4.9,2.5,5.8,3.1c0.7-0.4,1.5-0.8,2.4-1.2c0.9-0.4,1.8-0.6,2.8-0.8C23.1,33.9,23.9,30.3,25.1,30.1
		C25,30.1,25.1,30.1,25.1,30.1 M156.9,71.3c0.8,0,1.5-0.4,2.2-1.1c0.7-0.7,1.4-1.7,2-2.9c0.6-1.2,1.1-2.6,1.6-4.2
		c0.4-1.6,0.7-3.4,0.9-5.2c-0.7-0.1-1.1-0.4-1.4-0.9c-0.3-0.5-0.4-1-0.4-1.7c0-0.9,0.1-1.6,0.4-2.2c0.3-0.6,0.8-1,1.4-1.3
		c-0.1-0.7-0.2-1.2-0.3-1.7c-0.1-0.5-0.3-0.8-0.5-1.1c-0.2-0.3-0.4-0.5-0.7-0.6c-0.3-0.1-0.6-0.2-1.1-0.1c-0.8,0-1.5,0.4-2.1,1
		c-0.7,0.6-1.3,1.4-1.9,2.4c-0.6,1-1.1,2.1-1.6,3.4c-0.5,1.3-0.9,2.6-1.2,3.9c-0.3,1.3-0.5,2.6-0.7,3.9c-0.1,1.3-0.2,2.5-0.2,3.5
		c0,1,0.1,1.9,0.3,2.5c0.1,0.7,0.3,1.2,0.6,1.5c0.3,0.4,0.6,0.6,1,0.7C155.8,71.3,156.3,71.3,156.9,71.3 M129.2,72.5
		c0.8,0,1.5-0.4,2.2-1.1c0.7-0.7,1.4-1.7,2-2.9c0.6-1.2,1.1-2.6,1.6-4.2c0.4-1.6,0.7-3.4,0.9-5.2c-0.7-0.1-1.1-0.4-1.4-0.9
		c-0.3-0.5-0.4-1-0.4-1.7c0-0.9,0.1-1.6,0.4-2.2c0.3-0.6,0.8-1,1.4-1.3c-0.1-0.7-0.2-1.2-0.3-1.7c-0.1-0.5-0.3-0.8-0.5-1.1
		c-0.2-0.3-0.4-0.5-0.7-0.6c-0.3-0.1-0.6-0.2-1.1-0.1c-0.8,0-1.5,0.4-2.1,1c-0.7,0.6-1.3,1.4-1.9,2.4c-0.6,1-1.1,2.1-1.6,3.4
		c-0.5,1.3-0.9,2.6-1.2,3.9c-0.3,1.3-0.5,2.6-0.7,3.9c-0.1,1.3-0.2,2.5-0.2,3.5c0,1,0.1,1.9,0.3,2.5c0.1,0.7,0.3,1.2,0.6,1.5
		c0.3,0.4,0.6,0.6,1,0.7C128.1,72.5,128.6,72.6,129.2,72.5 M79.1,74.5c0.5,0,1-0.2,1.5-0.4c0.5-0.3,1-0.6,1.5-1.1
		c0.5-0.5,0.9-1.1,1.2-1.8c0.4-0.7,0.6-1.5,0.8-2.5l2.4-14.4c0-0.2-0.1-0.4-0.2-0.7c-0.1-0.3-0.2-0.5-0.5-0.8
		c-0.2-0.2-0.5-0.5-0.8-0.6c-0.3-0.2-0.8-0.2-1.3-0.2c-0.9,0-1.7,0.4-2.5,1c-0.8,0.6-1.5,1.4-2.1,2.4c-0.6,1-1.2,2.1-1.6,3.3
		c-0.5,1.2-0.8,2.5-1.1,3.8c-0.3,1.3-0.5,2.6-0.6,3.8c-0.1,1.3-0.2,2.4-0.1,3.4c0.1,1.2,0.2,2.1,0.5,2.8c0.3,0.6,0.5,1.1,0.9,1.4
		c0.3,0.3,0.7,0.5,1.1,0.5C78.5,74.5,78.8,74.5,79.1,74.5 M24.9,25.1L24.9,25.1c-0.3,0-0.6,0-0.8,0.1c-3.1,0.6-4.6,3.2-5.5,6.4
		c-0.2,0.1-0.3,0.1-0.5,0.2c0,0,0,0,0,0c-3.8-2.4-5.5-2.4-6.4-2.3c-3,0.1-5.2,2.4-5.4,5.3c-0.1,1.9,0.5,4.2,1.1,6
		c-1.1,1.6-2.1,3.4-2.9,5.2c-0.9,2-1.6,4-2.2,6.1c-0.6,2-1,4.1-1.4,6c-0.3,2-0.6,4-0.7,5.8C0,65.9,0,67.6,0,69.2
		c0.1,3.3,0.6,6.1,1.4,8.5c0.9,2.7,2.3,4.9,4,6.7c1.8,1.8,4,3.1,6.6,3.8c2.2,0.6,4.8,0.9,7.7,0.7c1.9-0.1,3.9-0.4,6-1.1
		c1.5-0.4,3-1,4.4-1.8c1,0.8,2.2,1.3,3.5,1.2l9.1-0.4c2.4-0.1,4.4-1.9,4.8-4.2l0.2-1.3c0.4,0.6,0.8,1.2,1.3,1.7
		c1.1,1.2,2.6,2.1,4.3,2.8c1.6,0.6,3.5,0.8,5.5,0.8c1.2-0.1,2.6-0.3,3.9-0.7c1.5-0.4,3-1.2,4.4-2.4c1.1,0.8,2.2,1.3,3.5,1.7
		c1.6,0.5,3.2,0.7,4.8,0.6c1.7-0.1,3.3-0.4,4.8-1c1.2-0.5,2.3-1.1,3.3-1.9c1.5,1.1,3.9,2.4,7.5,2.2c0.8,0,1.7-0.1,2.6-0.3
		c1.1-0.2,2.1-0.6,3.2-1c0.9-0.4,1.9-0.9,2.8-1.6c1,0.8,2.1,1.3,3.4,1.7c1.4,0.4,2.8,0.6,4.4,0.5c0.8,0,1.6-0.1,2.6-0.3
		c1.1-0.2,2.1-0.5,3.2-1c1.1-0.5,2.2-1.1,3.3-1.9c0.2-0.1,0.4-0.3,0.5-0.4c1.4,1,2.9,1.7,4.6,2.1c1.7,0.4,3.6,0.6,5.5,0.5
		c2.7-0.1,5.3-0.9,7.7-2.2c2.3-1.3,4.3-3.1,6-5.4c0.1-0.1,0.1-0.2,0.2-0.3c0.8,1.4,1.8,2.6,3,3.6c1.5,1.2,3.3,2.1,5.3,2.6
		c1.7,0.4,3.6,0.6,5.5,0.5c2.7-0.1,5.3-0.9,7.7-2.2c1.2-0.7,2.3-1.5,3.3-2.4c0.2,0.7,0.6,1.4,1.1,2c1,1.1,2.5,1.8,4,1.7l9.1-0.4
		c2.4-0.1,4.4-1.9,4.8-4.2l0.2-1.1c0.3,0.4,0.5,0.8,0.8,1.2c1,1.3,2.4,2.3,4,3c1.3,0.6,2.9,0.9,4.5,0.9c0.3,0,0.5,0,0.8,0
		c14.4-0.6,20.2-2.5,28-9.2c6.3-5.3,9.9-14.8,8.4-22.1c-0.9-4.3-3.5-7.5-7.3-8.6c-1.3-0.4-2.7-0.6-4-0.5c-5.6,0.3-12,5-12.8,17.6
		c-0.2,3.5-3.6,6-5.3,6.5c0.1-0.4,0.1-0.8,0.2-1.2c0.2-0.9,0.4-1.9,0.6-2.9c0.2-1.1,0.4-2.1,0.6-3.2c0.2-1.1,0.4-2.2,0.5-3.3
		c0.1-1.2,0.2-2.4,0.1-3.5c-0.1-1.9-0.5-3.6-1.1-5c-0.7-1.6-1.7-2.9-2.9-4c-1.2-1-2.7-1.8-4.3-2.2c-1.4-0.4-2.8-0.5-4.3-0.4
		c-0.7,0-1.5,0.1-2.3,0.3c-0.7,0.1-1.5,0.4-2.2,0.6c-0.7-0.3-1.4-0.4-2.2-0.4l-9.1,0.4c-2.4,0.1-4.4,1.9-4.8,4.2l-0.1,0.6
		c-2.4-3.2-6.1-4.9-10.7-4.7c-2.9,0.1-5.5,0.8-7.8,2c-2.2,1.1-4.1,2.5-5.7,4.3c-0.7,0.7-1.3,1.5-1.9,2.3c-2.2-4.9-6.5-7.6-12.3-7.3
		c-2.9,0.1-5.5,0.8-7.8,2c-1.2,0.6-2.4,1.4-3.5,2.2c-0.2-0.4-0.5-0.9-0.8-1.2c-0.5-0.5-1-0.9-1.6-1.2l0.8-4.5
		c0.3-1.6-0.3-3.3-1.4-4.4c-1-1-2.4-1.5-3.8-1.5c-0.2,0-0.5,0-0.7,0.1l-9.3,1.7c-2.1,0.4-3.7,2-4.1,4.1l-0.9,5.3
		c-0.2,0.1-0.3,0.2-0.4,0.3c-0.8-0.4-1.7-0.6-2.6-0.6l-9.1,0.4c-0.6,0-1.1,0.1-1.6,0.3c-1.2-0.3-2.6-0.4-4.2-0.4
		c-2.5,0.1-4.9,0.7-7,1.8c-2,1-3.8,2.4-5.3,4c-1,1.1-1.9,2.3-2.8,3.5c-0.1-0.5-0.3-1-0.5-1.4c-0.7-1.6-1.7-2.9-2.9-4
		c-1.2-1-2.7-1.8-4.3-2.2c-1.4-0.4-2.8-0.5-4.3-0.4c-0.1,0-0.2,0-0.4,0l1.1-6.3c0.3-1.6-0.3-3.3-1.4-4.4c-1-1-2.4-1.5-3.8-1.5
		c-0.2,0-0.5,0-0.7,0.1L39.8,34c-0.6,0.1-1.1,0.3-1.6,0.6c-0.7-0.7-1.5-1.4-2.3-1.9c-1.1-0.7-2.4-1.3-3.7-1.7
		C30.5,27.6,28.3,24.9,24.9,25.1L24.9,25.1z M23.3,72.6c-1.1,0.1-1.5-0.1-1.5-0.1c-0.2-0.1-0.3-0.2-0.3-0.2
		c-0.2-0.3-0.4-0.7-0.5-1.2c-0.2-0.9-0.3-1.9-0.4-3.1c-0.1-1.9,0-3.9,0.2-6c0.2-2.1,0.5-4.2,1-6.2c0.4-2,1-3.9,1.6-5.6
		c0.2-0.4,0.3-0.8,0.5-1.2c0.2,0.8,0.6,1.6,1.2,2.2c1.3,1.5,2.8,2.4,4.5,2.8c1.1,0.3,2.1,0.4,3.1,0.3c0.1,0,0.3,0,0.4,0L30.6,69
		c-0.8,1-1.7,1.7-2.7,2.3C26.5,72.1,25,72.5,23.3,72.6L23.3,72.6z"/>
	<path class="st1" d="M25.1,30.1c1.3-0.1,3.1,4.2,3.6,5.2c0.4,0,0.7,0.1,1.1,0.2c1.3,0.3,2.4,0.7,3.4,1.3c1,0.6,1.8,1.5,2.4,2.5
		c0.6,1,0.9,2.3,1,3.8c0,0.8,0,1.6-0.1,2.3c-0.1,0.7-0.4,1.3-0.7,1.9c-0.3,0.5-0.8,1-1.3,1.3c-0.6,0.3-1.2,0.5-2,0.5
		c-0.5,0-1.1,0-1.7-0.2c-0.7-0.2-1.3-0.6-1.9-1.3c0.4-0.2,0.7-0.5,1-0.9c0.3-0.4,0.6-0.9,0.9-1.4c0.2-0.5,0.4-1.1,0.6-1.7
		c0.1-0.6,0.2-1.2,0.2-1.9c0-0.5-0.1-1-0.3-1.4c-0.2-0.5-0.4-0.9-0.7-1.2c-0.3-0.3-0.7-0.6-1.2-0.8c-0.5-0.2-1.1-0.3-1.8-0.2
		c-1.2,0.1-2.3,0.5-3.3,1.4c-1.1,0.9-2,2.1-3,3.6c-0.9,1.5-1.7,3.3-2.4,5.2c-0.7,2-1.3,4.1-1.8,6.3c-0.5,2.2-0.8,4.5-1.1,6.8
		c-0.2,2.3-0.3,4.5-0.2,6.7c0.1,1.5,0.2,2.8,0.5,4c0.3,1.2,0.7,2.2,1.3,3c0.6,0.8,1.4,1.5,2.4,1.9c1,0.4,2.3,0.6,3.8,0.6
		c2.5-0.1,4.8-0.8,6.8-2c2-1.1,3.6-2.7,5-4.6L40.7,39l9.3-1.7l-2.7,16c0.6-0.8,1.3-1.4,1.9-1.9c0.6-0.5,1.3-0.9,1.9-1.1
		c0.6-0.3,1.2-0.5,1.8-0.6c0.6-0.1,1.1-0.2,1.6-0.2c1,0,1.9,0,2.8,0.3c0.9,0.2,1.6,0.6,2.3,1.2c0.7,0.5,1.2,1.3,1.6,2.2
		c0.4,0.9,0.6,2,0.7,3.2c0,0.8,0,1.8-0.1,2.7c-0.1,1-0.3,2-0.4,3c-0.2,1-0.4,2-0.6,3.1c-0.2,1-0.4,2-0.6,2.9
		c-0.2,0.9-0.3,1.8-0.5,2.6c-0.1,0.8-0.2,1.5-0.1,2.1c0,0.8,0.2,1.4,0.6,1.9c0.4,0.5,1.1,0.7,2,0.6c0.7,0,1.3-0.2,1.8-0.5
		c0.5-0.3,0.9-0.7,1.3-1.2c0.4-0.5,0.7-1.1,1-1.8c0.1-0.1,0.1-0.3,0.2-0.4c0-0.1,0-0.2,0-0.3c-0.1-1.4,0-3,0.2-4.6
		c0.2-1.7,0.6-3.3,1.1-5c0.5-1.7,1.2-3.3,2-4.8c0.8-1.5,1.8-2.9,3-4.1c1.1-1.2,2.5-2.2,4-3c1.5-0.8,3.1-1.2,5-1.3
		c1.8-0.1,3.1,0.2,3.9,0.7c0.8,0.6,1.3,1.3,1.3,2.2l0,0.5l0.5-3.4l9.1-0.4L93,69.5c-0.1,0.4-0.1,0.7-0.2,1c0,0.3,0,0.7,0,1
		c0.1,1.8,1,2.7,2.7,2.6c0.6,0,1.2-0.2,1.7-0.6c0.5-0.3,1-0.8,1.4-1.3c0.4-0.6,0.8-1.2,1.1-1.9c0.3-0.7,0.5-1.5,0.7-2.3l3-17.9
		l-2.1,0.1l0.4-2.5l2.1-0.1l1.5-8.8l9.3-1.7l-1.7,10.1l3.8-0.2l-0.4,2.5l-3.8,0.2l-3.2,19.1c-0.1,0.4-0.1,0.7-0.2,1c0,0.3,0,0.7,0,1
		c0,0.9,0.3,1.5,0.7,1.8c0.4,0.3,1.1,0.5,2,0.4c0.6,0,1.2-0.2,1.8-0.5c0.6-0.3,1.1-0.7,1.6-1.2s0.9-1.1,1.2-1.8c0-0.1,0-0.1,0.1-0.2
		c0-0.2,0-0.3,0-0.5c-0.1-1.2,0-2.6,0.2-4.2c0.2-1.6,0.5-3.2,1-4.9c0.5-1.7,1.1-3.3,2-5c0.8-1.6,1.8-3.1,3.1-4.4
		c1.2-1.3,2.7-2.4,4.3-3.2c1.6-0.8,3.5-1.3,5.7-1.4c5.4-0.2,8.2,3,8.5,9.7l0,0.1c0.1,0,0.2,0.1,0.3,0c0.1,0,0.2,0,0.4,0
		c0.7,0,1.5-0.2,2.4-0.4c0.8-0.3,1.7-0.6,2.5-1c0.1,0,0.1-0.1,0.2-0.1c0.1-0.2,0.1-0.3,0.2-0.5c0.8-1.6,1.8-3.1,3.1-4.4
		c1.2-1.3,2.7-2.4,4.3-3.2c1.6-0.8,3.6-1.3,5.7-1.4c5.4-0.2,8.2,3,8.5,9.7l0,0.1c0.1,0,0.2,0.1,0.3,0c0.1,0,0.2,0,0.4,0
		c0.7,0,1.5-0.2,2.4-0.4c0.8-0.3,1.7-0.6,2.5-1c0,0,0,0,0.1,0l1.4-8.5l9.1-0.4l-0.5,3.3c0.6-0.8,1.3-1.4,1.9-1.9
		c0.6-0.5,1.3-0.9,1.9-1.1c0.6-0.3,1.2-0.5,1.8-0.6c0.6-0.1,1.1-0.2,1.6-0.2c1,0,1.9,0,2.8,0.3c0.9,0.2,1.6,0.6,2.3,1.2
		c0.7,0.5,1.2,1.3,1.6,2.2c0.4,0.9,0.6,2,0.7,3.2c0,0.8,0,1.8-0.1,2.7c-0.1,1-0.3,2-0.4,3c-0.2,1-0.4,2-0.6,3.1
		c-0.2,1-0.4,2-0.6,2.9c-0.2,0.9-0.3,1.8-0.5,2.6c-0.1,0.8-0.2,1.5-0.1,2.1c0,0.8,0.2,1.4,0.6,1.9c0.4,0.5,1.1,0.9,2.1,0.9
		c0,0,0.4,0,1.1,0c0.6,0,1.3-0.1,2.2-0.2c3.7-0.6,9.3-5,9.7-11.2c0.6-8.4,3.9-12.7,8-12.9c0.7,0,1.5,0.1,2.3,0.3
		c6.6,2,4.8,15.6-2.9,22.1c-6.7,5.7-11.1,7.4-25,8c-0.2,0-0.3,0-0.4,0c-1,0-1.9-0.1-2.6-0.5c-0.8-0.4-1.5-0.9-2-1.5
		c-0.5-0.6-0.9-1.4-1.1-2.2c-0.2-0.8-0.4-1.7-0.4-2.6c0-1.1,0-2.3,0.3-3.8c0.2-1.4,0.5-2.9,0.8-4.4c0.3-1.5,0.5-3,0.8-4.4
		c0.2-1.4,0.3-2.6,0.3-3.6c-0.1-2.2-0.9-3.2-2.4-3.1c-0.6,0-1.1,0.2-1.6,0.5c-0.5,0.3-0.9,0.8-1.3,1.3c-0.4,0.5-0.7,1.2-1,1.9
		c-0.3,0.7-0.5,1.5-0.8,2.3l-3.4,20.4l-9.1,0.4l3.4-20.4c-1.6,0.7-3.4,1.3-5.2,1.7c-0.1,2.9-0.6,5.6-1.3,8c-0.8,2.4-1.8,4.4-3,6.1
		c-1.3,1.7-2.7,3-4.4,4c-1.7,1-3.5,1.5-5.4,1.6c-1.5,0.1-2.8-0.1-4.1-0.4c-1.3-0.3-2.4-0.8-3.3-1.6c-0.9-0.7-1.7-1.7-2.2-3
		c-0.6-1.2-0.9-2.8-1-4.6c-0.1-1.2,0-2.6,0.2-4.2c0.2-1.6,0.5-3.2,1-4.9c0.1-0.4,0.2-0.8,0.4-1.2c-1.4,0.6-2.9,1.1-4.5,1.4
		c-0.1,2.9-0.6,5.6-1.3,8c-0.8,2.4-1.8,4.4-3,6.1c-1.3,1.7-2.7,3-4.4,4c-1.7,1-3.5,1.5-5.4,1.6c-1.5,0.1-2.8-0.1-4.1-0.4
		c-1.3-0.3-2.4-0.8-3.3-1.6c-0.9-0.7-1.7-1.7-2.2-3c0-0.1-0.1-0.2-0.1-0.3c-0.4,0.7-0.8,1.3-1.3,1.8c-0.8,0.9-1.5,1.6-2.3,2.2
		c-0.8,0.6-1.6,1-2.4,1.3c-0.8,0.3-1.5,0.6-2.2,0.7c-0.7,0.1-1.3,0.2-1.9,0.2c-0.9,0-1.8-0.1-2.7-0.3c-0.8-0.3-1.6-0.7-2.2-1.3
		c-0.6-0.6-1.1-1.3-1.5-2.3c-0.2-0.4-0.3-0.9-0.4-1.4c-0.3,0.6-0.7,1.1-1.1,1.5c-0.7,0.9-1.4,1.6-2.2,2.2c-0.8,0.6-1.5,1-2.2,1.3
		c-0.7,0.3-1.4,0.5-2.1,0.7c-0.7,0.1-1.3,0.2-1.8,0.2c-1.8,0.1-3.2-0.3-4.3-1.3c-1.1-0.9-1.8-2.3-2.1-4.2c-0.5,0.7-1,1.5-1.6,2.2
		c-0.6,0.7-1.2,1.4-2,1.9c-0.7,0.6-1.6,1.1-2.5,1.4c-0.9,0.4-1.9,0.6-3.1,0.6c-1.1,0-2.1-0.1-3.2-0.4c-1-0.3-1.9-0.8-2.8-1.6
		c-0.8-0.8-1.5-1.8-2-3.1c0,0,0-0.1-0.1-0.1c0,0,0,0,0,0.1c-0.9,1.6-1.9,2.8-2.9,3.7c-1,0.9-2,1.4-3,1.7c-1,0.3-1.9,0.5-2.7,0.5
		c-1.4,0.1-2.6-0.1-3.5-0.4c-1-0.4-1.7-0.9-2.3-1.5c-0.6-0.6-1.1-1.4-1.3-2.2c-0.3-0.8-0.5-1.7-0.5-2.6c0-1.1,0-2.3,0.3-3.8
		c0.2-1.4,0.5-2.9,0.8-4.4c0.3-1.5,0.5-3,0.8-4.4c0.2-1.4,0.3-2.6,0.3-3.6c-0.1-2.2-0.9-3.2-2.4-3.1c-0.6,0-1.1,0.2-1.6,0.5
		c-0.5,0.3-0.9,0.8-1.3,1.3c-0.4,0.5-0.7,1.2-1,1.9c-0.3,0.7-0.6,1.5-0.8,2.3l-3.4,20.4l-9.1,0.4l1-6.2c-0.2,0.3-0.4,0.6-0.6,0.8
		c-1.4,1.6-2.9,2.8-4.5,3.8c-1.6,1-3.3,1.8-5,2.3c-1.7,0.5-3.3,0.8-4.8,0.9c-2.3,0.1-4.4-0.1-6.1-0.6c-1.7-0.5-3.2-1.3-4.4-2.5
		c-1.2-1.2-2.1-2.7-2.8-4.7c-0.7-1.9-1-4.3-1.2-7.2c-0.1-1.4,0-3,0.1-4.7c0.1-1.7,0.3-3.5,0.6-5.3c0.3-1.8,0.7-3.7,1.2-5.5
		c0.5-1.9,1.2-3.6,2-5.4c0.8-1.7,1.7-3.4,2.8-4.9c0.4-0.6,0.8-1.1,1.3-1.7l0,0c0,0-1.9-4.3-1.7-6.5c0-0.4,0.2-0.6,0.6-0.6
		c1.4-0.1,4.9,2.5,5.8,3.1c0.7-0.4,1.5-0.8,2.4-1.2c0.9-0.4,1.8-0.6,2.8-0.8C23.1,33.9,23.9,30.3,25.1,30.1
		C25,30.1,25.1,30.1,25.1,30.1 M156.9,71.3c0.8,0,1.5-0.4,2.2-1.1c0.7-0.7,1.4-1.7,2-2.9c0.6-1.2,1.1-2.6,1.6-4.2
		c0.4-1.6,0.7-3.4,0.9-5.2c-0.7-0.1-1.1-0.4-1.4-0.9c-0.3-0.5-0.4-1-0.4-1.7c0-0.9,0.1-1.6,0.4-2.2c0.3-0.6,0.8-1,1.4-1.3
		c-0.1-0.7-0.2-1.2-0.3-1.7c-0.1-0.5-0.3-0.8-0.5-1.1c-0.2-0.3-0.4-0.5-0.7-0.6c-0.3-0.1-0.6-0.2-1.1-0.1c-0.8,0-1.5,0.4-2.1,1
		c-0.7,0.6-1.3,1.4-1.9,2.4c-0.6,1-1.1,2.1-1.6,3.4c-0.5,1.3-0.9,2.6-1.2,3.9c-0.3,1.3-0.5,2.6-0.7,3.9c-0.1,1.3-0.2,2.5-0.2,3.5
		c0,1,0.1,1.9,0.3,2.5c0.1,0.7,0.3,1.2,0.6,1.5c0.3,0.4,0.6,0.6,1,0.7C155.8,71.3,156.3,71.3,156.9,71.3 M129.2,72.5
		c0.8,0,1.5-0.4,2.2-1.1c0.7-0.7,1.4-1.7,2-2.9c0.6-1.2,1.1-2.6,1.6-4.2c0.4-1.6,0.7-3.4,0.9-5.2c-0.7-0.1-1.1-0.4-1.4-0.9
		c-0.3-0.5-0.4-1-0.4-1.7c0-0.9,0.1-1.6,0.4-2.2c0.3-0.6,0.8-1,1.4-1.3c-0.1-0.7-0.2-1.2-0.3-1.7c-0.1-0.5-0.3-0.8-0.5-1.1
		c-0.2-0.3-0.4-0.5-0.7-0.6c-0.3-0.1-0.6-0.2-1.1-0.1c-0.8,0-1.5,0.4-2.1,1c-0.7,0.6-1.3,1.4-1.9,2.4c-0.6,1-1.1,2.1-1.6,3.4
		c-0.5,1.3-0.9,2.6-1.2,3.9c-0.3,1.3-0.5,2.6-0.7,3.9c-0.1,1.3-0.2,2.5-0.2,3.5c0,1,0.1,1.9,0.3,2.5c0.1,0.7,0.3,1.2,0.6,1.5
		c0.3,0.4,0.6,0.6,1,0.7C128.1,72.5,128.6,72.6,129.2,72.5 M79.1,74.5c0.5,0,1-0.2,1.5-0.4c0.5-0.3,1-0.6,1.5-1.1
		c0.5-0.5,0.9-1.1,1.2-1.8c0.4-0.7,0.6-1.5,0.8-2.5l2.4-14.4c0-0.2-0.1-0.4-0.2-0.7c-0.1-0.3-0.2-0.5-0.5-0.8
		c-0.2-0.2-0.5-0.5-0.8-0.6c-0.3-0.2-0.8-0.2-1.3-0.2c-0.9,0-1.7,0.4-2.5,1c-0.8,0.6-1.5,1.4-2.1,2.4c-0.6,1-1.2,2.1-1.6,3.3
		c-0.5,1.2-0.8,2.5-1.1,3.8c-0.3,1.3-0.5,2.6-0.6,3.8c-0.1,1.3-0.2,2.4-0.1,3.4c0.1,1.2,0.2,2.1,0.5,2.8c0.3,0.6,0.5,1.1,0.9,1.4
		c0.3,0.3,0.7,0.5,1.1,0.5C78.5,74.5,78.8,74.5,79.1,74.5 M24.9,25.1L24.9,25.1c-0.3,0-0.6,0-0.8,0.1c-3.1,0.6-4.6,3.2-5.5,6.4
		c-0.2,0.1-0.3,0.1-0.5,0.2c0,0,0,0,0,0c-3.8-2.4-5.5-2.4-6.4-2.3c-3,0.1-5.2,2.4-5.4,5.3c-0.1,1.9,0.5,4.2,1.1,6
		c-1.1,1.6-2.1,3.4-2.9,5.2c-0.9,2-1.6,4-2.2,6.1c-0.6,2-1,4.1-1.4,6c-0.3,2-0.6,4-0.7,5.8C0,65.9,0,67.6,0,69.2
		c0.1,3.3,0.6,6.1,1.4,8.5c0.9,2.7,2.3,4.9,4,6.7c1.8,1.8,4,3.1,6.6,3.8c2.2,0.6,4.8,0.9,7.7,0.7c1.9-0.1,3.9-0.4,6-1.1
		c1.5-0.4,3-1,4.4-1.8c1,0.8,2.2,1.3,3.5,1.2l9.1-0.4c2.4-0.1,4.4-1.9,4.8-4.2l0.2-1.3c0.4,0.6,0.8,1.2,1.3,1.7
		c1.1,1.2,2.6,2.1,4.3,2.8c1.6,0.6,3.5,0.8,5.5,0.8c1.2-0.1,2.6-0.3,3.9-0.7c1.5-0.4,3-1.2,4.4-2.4c1.1,0.8,2.2,1.3,3.5,1.7
		c1.6,0.5,3.2,0.7,4.8,0.6c1.7-0.1,3.3-0.4,4.8-1c1.2-0.5,2.3-1.1,3.3-1.9c1.5,1.1,3.9,2.4,7.5,2.2c0.8,0,1.7-0.1,2.6-0.3
		c1.1-0.2,2.1-0.6,3.2-1c0.9-0.4,1.9-0.9,2.8-1.6c1,0.8,2.1,1.3,3.4,1.7c1.4,0.4,2.8,0.6,4.4,0.5c0.8,0,1.6-0.1,2.6-0.3
		c1.1-0.2,2.1-0.5,3.2-1c1.1-0.5,2.2-1.1,3.3-1.9c0.2-0.1,0.4-0.3,0.5-0.4c1.4,1,2.9,1.7,4.6,2.1c1.7,0.4,3.6,0.6,5.5,0.5
		c2.7-0.1,5.3-0.9,7.7-2.2c2.3-1.3,4.3-3.1,6-5.4c0.1-0.1,0.1-0.2,0.2-0.3c0.8,1.4,1.8,2.6,3,3.6c1.5,1.2,3.3,2.1,5.3,2.6
		c1.7,0.4,3.6,0.6,5.5,0.5c2.7-0.1,5.3-0.9,7.7-2.2c1.2-0.7,2.3-1.5,3.3-2.4c0.2,0.7,0.6,1.4,1.1,2c1,1.1,2.5,1.8,4,1.7l9.1-0.4
		c2.4-0.1,4.4-1.9,4.8-4.2l0.2-1.1c0.3,0.4,0.5,0.8,0.8,1.2c1,1.3,2.4,2.3,4,3c1.3,0.6,2.9,0.9,4.5,0.9c0.3,0,0.5,0,0.8,0
		c14.4-0.6,20.2-2.5,28-9.2c6.3-5.3,9.9-14.8,8.4-22.1c-0.9-4.3-3.5-7.5-7.3-8.6c-1.3-0.4-2.7-0.6-4-0.5c-5.6,0.3-12,5-12.8,17.6
		c-0.2,3.5-3.6,6-5.3,6.5c0.1-0.4,0.1-0.8,0.2-1.2c0.2-0.9,0.4-1.9,0.6-2.9c0.2-1.1,0.4-2.1,0.6-3.2c0.2-1.1,0.4-2.2,0.5-3.3
		c0.1-1.2,0.2-2.4,0.1-3.5c-0.1-1.9-0.5-3.6-1.1-5c-0.7-1.6-1.7-2.9-2.9-4c-1.2-1-2.7-1.8-4.3-2.2c-1.4-0.4-2.8-0.5-4.3-0.4
		c-0.7,0-1.5,0.1-2.3,0.3c-0.7,0.1-1.5,0.4-2.2,0.6c-0.7-0.3-1.4-0.4-2.2-0.4l-9.1,0.4c-2.4,0.1-4.4,1.9-4.8,4.2l-0.1,0.6
		c-2.4-3.2-6.1-4.9-10.7-4.7c-2.9,0.1-5.5,0.8-7.8,2c-2.2,1.1-4.1,2.5-5.7,4.3c-0.7,0.7-1.3,1.5-1.9,2.3c-2.2-4.9-6.5-7.6-12.3-7.3
		c-2.9,0.1-5.5,0.8-7.8,2c-1.2,0.6-2.4,1.4-3.5,2.2c-0.2-0.4-0.5-0.9-0.8-1.2c-0.5-0.5-1-0.9-1.6-1.2l0.8-4.5
		c0.3-1.6-0.3-3.3-1.4-4.4c-1-1-2.4-1.5-3.8-1.5c-0.2,0-0.5,0-0.7,0.1l-9.3,1.7c-2.1,0.4-3.7,2-4.1,4.1l-0.9,5.3
		c-0.2,0.1-0.3,0.2-0.4,0.3c-0.8-0.4-1.7-0.6-2.6-0.6l-9.1,0.4c-0.6,0-1.1,0.1-1.6,0.3c-1.2-0.3-2.6-0.4-4.2-0.4
		c-2.5,0.1-4.9,0.7-7,1.8c-2,1-3.8,2.4-5.3,4c-1,1.1-1.9,2.3-2.8,3.5c-0.1-0.5-0.3-1-0.5-1.4c-0.7-1.6-1.7-2.9-2.9-4
		c-1.2-1-2.7-1.8-4.3-2.2c-1.4-0.4-2.8-0.5-4.3-0.4c-0.1,0-0.2,0-0.4,0l1.1-6.3c0.3-1.6-0.3-3.3-1.4-4.4c-1-1-2.4-1.5-3.8-1.5
		c-0.2,0-0.5,0-0.7,0.1L39.8,34c-0.6,0.1-1.1,0.3-1.6,0.6c-0.7-0.7-1.5-1.4-2.3-1.9c-1.1-0.7-2.4-1.3-3.7-1.7
		C30.5,27.6,28.3,24.9,24.9,25.1L24.9,25.1z M23.3,72.6c-1.1,0.1-1.5-0.1-1.5-0.1c-0.2-0.1-0.3-0.2-0.3-0.2
		c-0.2-0.3-0.4-0.7-0.5-1.2c-0.2-0.9-0.3-1.9-0.4-3.1c-0.1-1.9,0-3.9,0.2-6c0.2-2.1,0.5-4.2,1-6.2c0.4-2,1-3.9,1.6-5.6
		c0.2-0.4,0.3-0.8,0.5-1.2c0.2,0.8,0.6,1.6,1.2,2.2c1.3,1.5,2.8,2.4,4.5,2.8c1.1,0.3,2.1,0.4,3.1,0.3c0.1,0,0.3,0,0.4,0L30.6,69
		c-0.8,1-1.7,1.7-2.7,2.3C26.5,72.1,25,72.5,23.3,72.6L23.3,72.6z"/>
	<g>
		<defs>
			<path id="SVGID_1_" d="M25.1,30.1c1.3-0.1,3.1,4.2,3.6,5.2c0.4,0,0.7,0.1,1.1,0.2c1.3,0.3,2.4,0.7,3.4,1.3c1,0.6,1.8,1.5,2.4,2.5
				c0.6,1,0.9,2.3,1,3.8c0,0.8,0,1.6-0.1,2.3c-0.1,0.7-0.4,1.3-0.7,1.9c-0.3,0.5-0.8,1-1.3,1.3c-0.6,0.3-1.2,0.5-2,0.5
				c-0.5,0-1.1,0-1.7-0.2c-0.7-0.2-1.3-0.6-1.9-1.3c0.4-0.2,0.7-0.5,1-0.9c0.3-0.4,0.6-0.9,0.9-1.4c0.2-0.5,0.4-1.1,0.6-1.7
				c0.1-0.6,0.2-1.2,0.2-1.9c0-0.5-0.1-1-0.3-1.4c-0.2-0.5-0.4-0.9-0.7-1.2c-0.3-0.3-0.7-0.6-1.2-0.8c-0.5-0.2-1.1-0.3-1.8-0.2
				c-1.2,0.1-2.3,0.5-3.3,1.4c-1.1,0.9-2,2.1-3,3.6c-0.9,1.5-1.7,3.3-2.4,5.2c-0.7,2-1.3,4.1-1.8,6.3c-0.5,2.2-0.8,4.5-1.1,6.8
				c-0.2,2.3-0.3,4.5-0.2,6.7c0.1,1.5,0.2,2.8,0.5,4c0.3,1.2,0.7,2.2,1.3,3c0.6,0.8,1.4,1.5,2.4,1.9c1,0.4,2.3,0.6,3.8,0.6
				c2.5-0.1,4.8-0.8,6.8-2c2-1.1,3.6-2.7,5-4.6L40.7,39l9.3-1.7l-2.7,16c0.6-0.8,1.3-1.4,1.9-1.9c0.6-0.5,1.3-0.9,1.9-1.1
				c0.6-0.3,1.2-0.5,1.8-0.6c0.6-0.1,1.1-0.2,1.6-0.2c1,0,1.9,0,2.8,0.3c0.9,0.2,1.6,0.6,2.3,1.2c0.7,0.5,1.2,1.3,1.6,2.2
				c0.4,0.9,0.6,2,0.7,3.2c0,0.8,0,1.8-0.1,2.7c-0.1,1-0.3,2-0.4,3c-0.2,1-0.4,2-0.6,3.1c-0.2,1-0.4,2-0.6,2.9
				c-0.2,0.9-0.3,1.8-0.5,2.6c-0.1,0.8-0.2,1.5-0.1,2.1c0,0.8,0.2,1.4,0.6,1.9c0.4,0.5,1.1,0.7,2,0.6c0.7,0,1.3-0.2,1.8-0.5
				c0.5-0.3,0.9-0.7,1.3-1.2c0.4-0.5,0.7-1.1,1-1.8c0.1-0.1,0.1-0.3,0.2-0.4c0-0.1,0-0.2,0-0.3c-0.1-1.4,0-3,0.2-4.6
				c0.2-1.7,0.6-3.3,1.1-5c0.5-1.7,1.2-3.3,2-4.8c0.8-1.5,1.8-2.9,3-4.1c1.1-1.2,2.5-2.2,4-3c1.5-0.8,3.1-1.2,5-1.3
				c1.8-0.1,3.1,0.2,3.9,0.7c0.8,0.6,1.3,1.3,1.3,2.2l0,0.5l0.5-3.4l9.1-0.4L93,69.5c-0.1,0.4-0.1,0.7-0.2,1c0,0.3,0,0.7,0,1
				c0.1,1.8,1,2.7,2.7,2.6c0.6,0,1.2-0.2,1.7-0.6c0.5-0.3,1-0.8,1.4-1.3c0.4-0.6,0.8-1.2,1.1-1.9c0.3-0.7,0.5-1.5,0.7-2.3l3-17.9
				l-2.1,0.1l0.4-2.5l2.1-0.1l1.5-8.8l9.3-1.7l-1.7,10.1l3.8-0.2l-0.4,2.5l-3.8,0.2l-3.2,19.1c-0.1,0.4-0.1,0.7-0.2,1
				c0,0.3,0,0.7,0,1c0,0.9,0.3,1.5,0.7,1.8c0.4,0.3,1.1,0.5,2,0.4c0.6,0,1.2-0.2,1.8-0.5c0.6-0.3,1.1-0.7,1.6-1.2s0.9-1.1,1.2-1.8
				c0-0.1,0-0.1,0.1-0.2c0-0.2,0-0.3,0-0.5c-0.1-1.2,0-2.6,0.2-4.2c0.2-1.6,0.5-3.2,1-4.9c0.5-1.7,1.1-3.3,2-5
				c0.8-1.6,1.8-3.1,3.1-4.4c1.2-1.3,2.7-2.4,4.3-3.2c1.6-0.8,3.5-1.3,5.7-1.4c5.4-0.2,8.2,3,8.5,9.7l0,0.1c0.1,0,0.2,0.1,0.3,0
				c0.1,0,0.2,0,0.4,0c0.7,0,1.5-0.2,2.4-0.4c0.8-0.3,1.7-0.6,2.5-1c0.1,0,0.1-0.1,0.2-0.1c0.1-0.2,0.1-0.3,0.2-0.5
				c0.8-1.6,1.8-3.1,3.1-4.4c1.2-1.3,2.7-2.4,4.3-3.2c1.6-0.8,3.6-1.3,5.7-1.4c5.4-0.2,8.2,3,8.5,9.7l0,0.1c0.1,0,0.2,0.1,0.3,0
				c0.1,0,0.2,0,0.4,0c0.7,0,1.5-0.2,2.4-0.4c0.8-0.3,1.7-0.6,2.5-1c0,0,0,0,0.1,0l1.4-8.5l9.1-0.4l-0.5,3.3
				c0.6-0.8,1.3-1.4,1.9-1.9c0.6-0.5,1.3-0.9,1.9-1.1c0.6-0.3,1.2-0.5,1.8-0.6c0.6-0.1,1.1-0.2,1.6-0.2c1,0,1.9,0,2.8,0.3
				c0.9,0.2,1.6,0.6,2.3,1.2c0.7,0.5,1.2,1.3,1.6,2.2c0.4,0.9,0.6,2,0.7,3.2c0,0.8,0,1.8-0.1,2.7c-0.1,1-0.3,2-0.4,3
				c-0.2,1-0.4,2-0.6,3.1c-0.2,1-0.4,2-0.6,2.9c-0.2,0.9-0.3,1.8-0.5,2.6c-0.1,0.8-0.2,1.5-0.1,2.1c0,0.8,0.2,1.4,0.6,1.9
				c0.4,0.5,1.1,0.9,2.1,0.9c0,0,0.4,0,1.1,0c0.6,0,1.3-0.1,2.2-0.2c3.7-0.6,9.3-5,9.7-11.2c0.6-8.4,3.9-12.7,8-12.9
				c0.7,0,1.5,0.1,2.3,0.3c6.6,2,4.8,15.6-2.9,22.1c-6.7,5.7-11.1,7.4-25,8c-0.2,0-0.3,0-0.4,0c-1,0-1.9-0.1-2.6-0.5
				c-0.8-0.4-1.5-0.9-2-1.5c-0.5-0.6-0.9-1.4-1.1-2.2c-0.2-0.8-0.4-1.7-0.4-2.6c0-1.1,0-2.3,0.3-3.8c0.2-1.4,0.5-2.9,0.8-4.4
				c0.3-1.5,0.5-3,0.8-4.4c0.2-1.4,0.3-2.6,0.3-3.6c-0.1-2.2-0.9-3.2-2.4-3.1c-0.6,0-1.1,0.2-1.6,0.5c-0.5,0.3-0.9,0.8-1.3,1.3
				c-0.4,0.5-0.7,1.2-1,1.9c-0.3,0.7-0.5,1.5-0.8,2.3l-3.4,20.4l-9.1,0.4l3.4-20.4c-1.6,0.7-3.4,1.3-5.2,1.7c-0.1,2.9-0.6,5.6-1.3,8
				c-0.8,2.4-1.8,4.4-3,6.1c-1.3,1.7-2.7,3-4.4,4c-1.7,1-3.5,1.5-5.4,1.6c-1.5,0.1-2.8-0.1-4.1-0.4c-1.3-0.3-2.4-0.8-3.3-1.6
				c-0.9-0.7-1.7-1.7-2.2-3c-0.6-1.2-0.9-2.8-1-4.6c-0.1-1.2,0-2.6,0.2-4.2c0.2-1.6,0.5-3.2,1-4.9c0.1-0.4,0.2-0.8,0.4-1.2
				c-1.4,0.6-2.9,1.1-4.5,1.4c-0.1,2.9-0.6,5.6-1.3,8c-0.8,2.4-1.8,4.4-3,6.1c-1.3,1.7-2.7,3-4.4,4c-1.7,1-3.5,1.5-5.4,1.6
				c-1.5,0.1-2.8-0.1-4.1-0.4c-1.3-0.3-2.4-0.8-3.3-1.6c-0.9-0.7-1.7-1.7-2.2-3c0-0.1-0.1-0.2-0.1-0.3c-0.4,0.7-0.8,1.3-1.3,1.8
				c-0.8,0.9-1.5,1.6-2.3,2.2c-0.8,0.6-1.6,1-2.4,1.3c-0.8,0.3-1.5,0.6-2.2,0.7c-0.7,0.1-1.3,0.2-1.9,0.2c-0.9,0-1.8-0.1-2.7-0.3
				c-0.8-0.3-1.6-0.7-2.2-1.3c-0.6-0.6-1.1-1.3-1.5-2.3c-0.2-0.4-0.3-0.9-0.4-1.4c-0.3,0.6-0.7,1.1-1.1,1.5
				c-0.7,0.9-1.4,1.6-2.2,2.2c-0.8,0.6-1.5,1-2.2,1.3c-0.7,0.3-1.4,0.5-2.1,0.7c-0.7,0.1-1.3,0.2-1.8,0.2c-1.8,0.1-3.2-0.3-4.3-1.3
				c-1.1-0.9-1.8-2.3-2.1-4.2c-0.5,0.7-1,1.5-1.6,2.2c-0.6,0.7-1.2,1.4-2,1.9c-0.7,0.6-1.6,1.1-2.5,1.4c-0.9,0.4-1.9,0.6-3.1,0.6
				c-1.1,0-2.1-0.1-3.2-0.4c-1-0.3-1.9-0.8-2.8-1.6c-0.8-0.8-1.5-1.8-2-3.1c0,0,0-0.1-0.1-0.1c0,0,0,0,0,0.1
				c-0.9,1.6-1.9,2.8-2.9,3.7c-1,0.9-2,1.4-3,1.7c-1,0.3-1.9,0.5-2.7,0.5c-1.4,0.1-2.6-0.1-3.5-0.4c-1-0.4-1.7-0.9-2.3-1.5
				c-0.6-0.6-1.1-1.4-1.3-2.2c-0.3-0.8-0.5-1.7-0.5-2.6c0-1.1,0-2.3,0.3-3.8c0.2-1.4,0.5-2.9,0.8-4.4c0.3-1.5,0.5-3,0.8-4.4
				c0.2-1.4,0.3-2.6,0.3-3.6c-0.1-2.2-0.9-3.2-2.4-3.1c-0.6,0-1.1,0.2-1.6,0.5c-0.5,0.3-0.9,0.8-1.3,1.3c-0.4,0.5-0.7,1.2-1,1.9
				c-0.3,0.7-0.6,1.5-0.8,2.3l-3.4,20.4l-9.1,0.4l1-6.2c-0.2,0.3-0.4,0.6-0.6,0.8c-1.4,1.6-2.9,2.8-4.5,3.8c-1.6,1-3.3,1.8-5,2.3
				c-1.7,0.5-3.3,0.8-4.8,0.9c-2.3,0.1-4.4-0.1-6.1-0.6c-1.7-0.5-3.2-1.3-4.4-2.5c-1.2-1.2-2.1-2.7-2.8-4.7c-0.7-1.9-1-4.3-1.2-7.2
				c-0.1-1.4,0-3,0.1-4.7c0.1-1.7,0.3-3.5,0.6-5.3c0.3-1.8,0.7-3.7,1.2-5.5c0.5-1.9,1.2-3.6,2-5.4c0.8-1.7,1.7-3.4,2.8-4.9
				c0.4-0.6,0.8-1.1,1.3-1.7l0,0c0,0-1.9-4.3-1.7-6.5c0-0.4,0.2-0.6,0.6-0.6c1.4-0.1,4.9,2.5,5.8,3.1c0.7-0.4,1.5-0.8,2.4-1.2
				c0.9-0.4,1.8-0.6,2.8-0.8C23.1,33.9,23.9,30.3,25.1,30.1C25,30.1,25.1,30.1,25.1,30.1 M156.9,71.3c0.8,0,1.5-0.4,2.2-1.1
				c0.7-0.7,1.4-1.7,2-2.9c0.6-1.2,1.1-2.6,1.6-4.2c0.4-1.6,0.7-3.4,0.9-5.2c-0.7-0.1-1.1-0.4-1.4-0.9c-0.3-0.5-0.4-1-0.4-1.7
				c0-0.9,0.1-1.6,0.4-2.2c0.3-0.6,0.8-1,1.4-1.3c-0.1-0.7-0.2-1.2-0.3-1.7c-0.1-0.5-0.3-0.8-0.5-1.1c-0.2-0.3-0.4-0.5-0.7-0.6
				c-0.3-0.1-0.6-0.2-1.1-0.1c-0.8,0-1.5,0.4-2.1,1c-0.7,0.6-1.3,1.4-1.9,2.4c-0.6,1-1.1,2.1-1.6,3.4c-0.5,1.3-0.9,2.6-1.2,3.9
				c-0.3,1.3-0.5,2.6-0.7,3.9c-0.1,1.3-0.2,2.5-0.2,3.5c0,1,0.1,1.9,0.3,2.5c0.1,0.7,0.3,1.2,0.6,1.5c0.3,0.4,0.6,0.6,1,0.7
				C155.8,71.3,156.3,71.3,156.9,71.3 M129.2,72.5c0.8,0,1.5-0.4,2.2-1.1c0.7-0.7,1.4-1.7,2-2.9c0.6-1.2,1.1-2.6,1.6-4.2
				c0.4-1.6,0.7-3.4,0.9-5.2c-0.7-0.1-1.1-0.4-1.4-0.9c-0.3-0.5-0.4-1-0.4-1.7c0-0.9,0.1-1.6,0.4-2.2c0.3-0.6,0.8-1,1.4-1.3
				c-0.1-0.7-0.2-1.2-0.3-1.7c-0.1-0.5-0.3-0.8-0.5-1.1c-0.2-0.3-0.4-0.5-0.7-0.6c-0.3-0.1-0.6-0.2-1.1-0.1c-0.8,0-1.5,0.4-2.1,1
				c-0.7,0.6-1.3,1.4-1.9,2.4c-0.6,1-1.1,2.1-1.6,3.4c-0.5,1.3-0.9,2.6-1.2,3.9c-0.3,1.3-0.5,2.6-0.7,3.9c-0.1,1.3-0.2,2.5-0.2,3.5
				c0,1,0.1,1.9,0.3,2.5c0.1,0.7,0.3,1.2,0.6,1.5c0.3,0.4,0.6,0.6,1,0.7C128.1,72.5,128.6,72.6,129.2,72.5 M79.1,74.5
				c0.5,0,1-0.2,1.5-0.4c0.5-0.3,1-0.6,1.5-1.1c0.5-0.5,0.9-1.1,1.2-1.8c0.4-0.7,0.6-1.5,0.8-2.5l2.4-14.4c0-0.2-0.1-0.4-0.2-0.7
				c-0.1-0.3-0.2-0.5-0.5-0.8c-0.2-0.2-0.5-0.5-0.8-0.6c-0.3-0.2-0.8-0.2-1.3-0.2c-0.9,0-1.7,0.4-2.5,1c-0.8,0.6-1.5,1.4-2.1,2.4
				c-0.6,1-1.2,2.1-1.6,3.3c-0.5,1.2-0.8,2.5-1.1,3.8c-0.3,1.3-0.5,2.6-0.6,3.8c-0.1,1.3-0.2,2.4-0.1,3.4c0.1,1.2,0.2,2.1,0.5,2.8
				c0.3,0.6,0.5,1.1,0.9,1.4c0.3,0.3,0.7,0.5,1.1,0.5C78.5,74.5,78.8,74.5,79.1,74.5 M24.9,25.1L24.9,25.1c-0.3,0-0.6,0-0.8,0.1
				c-3.1,0.6-4.6,3.2-5.5,6.4c-0.2,0.1-0.3,0.1-0.5,0.2c0,0,0,0,0,0c-3.8-2.4-5.5-2.4-6.4-2.3c-3,0.1-5.2,2.4-5.4,5.3
				c-0.1,1.9,0.5,4.2,1.1,6c-1.1,1.6-2.1,3.4-2.9,5.2c-0.9,2-1.6,4-2.2,6.1c-0.6,2-1,4.1-1.4,6c-0.3,2-0.6,4-0.7,5.8
				C0,65.9,0,67.6,0,69.2c0.1,3.3,0.6,6.1,1.4,8.5c0.9,2.7,2.3,4.9,4,6.7c1.8,1.8,4,3.1,6.6,3.8c2.2,0.6,4.8,0.9,7.7,0.7
				c1.9-0.1,3.9-0.4,6-1.1c1.5-0.4,3-1,4.4-1.8c1,0.8,2.2,1.3,3.5,1.2l9.1-0.4c2.4-0.1,4.4-1.9,4.8-4.2l0.2-1.3
				c0.4,0.6,0.8,1.2,1.3,1.7c1.1,1.2,2.6,2.1,4.3,2.8c1.6,0.6,3.5,0.8,5.5,0.8c1.2-0.1,2.6-0.3,3.9-0.7c1.5-0.4,3-1.2,4.4-2.4
				c1.1,0.8,2.2,1.3,3.5,1.7c1.6,0.5,3.2,0.7,4.8,0.6c1.7-0.1,3.3-0.4,4.8-1c1.2-0.5,2.3-1.1,3.3-1.9c1.5,1.1,3.9,2.4,7.5,2.2
				c0.8,0,1.7-0.1,2.6-0.3c1.1-0.2,2.1-0.6,3.2-1c0.9-0.4,1.9-0.9,2.8-1.6c1,0.8,2.1,1.3,3.4,1.7c1.4,0.4,2.8,0.6,4.4,0.5
				c0.8,0,1.6-0.1,2.6-0.3c1.1-0.2,2.1-0.5,3.2-1c1.1-0.5,2.2-1.1,3.3-1.9c0.2-0.1,0.4-0.3,0.5-0.4c1.4,1,2.9,1.7,4.6,2.1
				c1.7,0.4,3.6,0.6,5.5,0.5c2.7-0.1,5.3-0.9,7.7-2.2c2.3-1.3,4.3-3.1,6-5.4c0.1-0.1,0.1-0.2,0.2-0.3c0.8,1.4,1.8,2.6,3,3.6
				c1.5,1.2,3.3,2.1,5.3,2.6c1.7,0.4,3.6,0.6,5.5,0.5c2.7-0.1,5.3-0.9,7.7-2.2c1.2-0.7,2.3-1.5,3.3-2.4c0.2,0.7,0.6,1.4,1.1,2
				c1,1.1,2.5,1.8,4,1.7l9.1-0.4c2.4-0.1,4.4-1.9,4.8-4.2l0.2-1.1c0.3,0.4,0.5,0.8,0.8,1.2c1,1.3,2.4,2.3,4,3
				c1.3,0.6,2.9,0.9,4.5,0.9c0.3,0,0.5,0,0.8,0c14.4-0.6,20.2-2.5,28-9.2c6.3-5.3,9.9-14.8,8.4-22.1c-0.9-4.3-3.5-7.5-7.3-8.6
				c-1.3-0.4-2.7-0.6-4-0.5c-5.6,0.3-12,5-12.8,17.6c-0.2,3.5-3.6,6-5.3,6.5c0.1-0.4,0.1-0.8,0.2-1.2c0.2-0.9,0.4-1.9,0.6-2.9
				c0.2-1.1,0.4-2.1,0.6-3.2c0.2-1.1,0.4-2.2,0.5-3.3c0.1-1.2,0.2-2.4,0.1-3.5c-0.1-1.9-0.5-3.6-1.1-5c-0.7-1.6-1.7-2.9-2.9-4
				c-1.2-1-2.7-1.8-4.3-2.2c-1.4-0.4-2.8-0.5-4.3-0.4c-0.7,0-1.5,0.1-2.3,0.3c-0.7,0.1-1.5,0.4-2.2,0.6c-0.7-0.3-1.4-0.4-2.2-0.4
				l-9.1,0.4c-2.4,0.1-4.4,1.9-4.8,4.2l-0.1,0.6c-2.4-3.2-6.1-4.9-10.7-4.7c-2.9,0.1-5.5,0.8-7.8,2c-2.2,1.1-4.1,2.5-5.7,4.3
				c-0.7,0.7-1.3,1.5-1.9,2.3c-2.2-4.9-6.5-7.6-12.3-7.3c-2.9,0.1-5.5,0.8-7.8,2c-1.2,0.6-2.4,1.4-3.5,2.2c-0.2-0.4-0.5-0.9-0.8-1.2
				c-0.5-0.5-1-0.9-1.6-1.2l0.8-4.5c0.3-1.6-0.3-3.3-1.4-4.4c-1-1-2.4-1.5-3.8-1.5c-0.2,0-0.5,0-0.7,0.1l-9.3,1.7
				c-2.1,0.4-3.7,2-4.1,4.1l-0.9,5.3c-0.2,0.1-0.3,0.2-0.4,0.3c-0.8-0.4-1.7-0.6-2.6-0.6l-9.1,0.4c-0.6,0-1.1,0.1-1.6,0.3
				c-1.2-0.3-2.6-0.4-4.2-0.4c-2.5,0.1-4.9,0.7-7,1.8c-2,1-3.8,2.4-5.3,4c-1,1.1-1.9,2.3-2.8,3.5c-0.1-0.5-0.3-1-0.5-1.4
				c-0.7-1.6-1.7-2.9-2.9-4c-1.2-1-2.7-1.8-4.3-2.2c-1.4-0.4-2.8-0.5-4.3-0.4c-0.1,0-0.2,0-0.4,0l1.1-6.3c0.3-1.6-0.3-3.3-1.4-4.4
				c-1-1-2.4-1.5-3.8-1.5c-0.2,0-0.5,0-0.7,0.1L39.8,34c-0.6,0.1-1.1,0.3-1.6,0.6c-0.7-0.7-1.5-1.4-2.3-1.9
				c-1.1-0.7-2.4-1.3-3.7-1.7C30.5,27.6,28.3,24.9,24.9,25.1L24.9,25.1z M23.3,72.6c-1.1,0.1-1.5-0.1-1.5-0.1
				c-0.2-0.1-0.3-0.2-0.3-0.2c-0.2-0.3-0.4-0.7-0.5-1.2c-0.2-0.9-0.3-1.9-0.4-3.1c-0.1-1.9,0-3.9,0.2-6c0.2-2.1,0.5-4.2,1-6.2
				c0.4-2,1-3.9,1.6-5.6c0.2-0.4,0.3-0.8,0.5-1.2c0.2,0.8,0.6,1.6,1.2,2.2c1.3,1.5,2.8,2.4,4.5,2.8c1.1,0.3,2.1,0.4,3.1,0.3
				c0.1,0,0.3,0,0.4,0L30.6,69c-0.8,1-1.7,1.7-2.7,2.3C26.5,72.1,25,72.5,23.3,72.6L23.3,72.6z"/>
		</defs>
		<clipPath id="SVGID_2_">
			<use xlink:href="#SVGID_1_"  style="overflow:visible;"/>
		</clipPath>
		<path class="st2" d="M1,51.9c0,0,2.3,3.5,3.5,3.9c0,0-3,1.5-4.2-2.1C-1,50.2,1,51.9,1,51.9z"/>
		<path class="st2" d="M-0.9,56.6c0,0,3.2,2.7,4.5,2.8c0,0-2.5,2.3-4.7-0.8S-0.9,56.6-0.9,56.6z"/>
		<path class="st2" d="M-2.4,61.8c0,0,4.1,1.2,5.2,0.7c0,0-1.3,3.1-4.6,1.2C-5,61.7-2.4,61.8-2.4,61.8z"/>
		<path class="st2" d="M217.8,77.2c0,0,0.3-4.2-0.4-5.3c0,0,3.3,0.7,2.1,4.2S217.8,77.2,217.8,77.2z"/>
		<path class="st2" d="M222.1,74.7c0,0-0.9-4.1-1.8-4.9c0,0,3.3-0.3,3.2,3.5C223.3,77,222.1,74.7,222.1,74.7z"/>
		<path class="st2" d="M226.4,71.5c0,0-2.5-3.4-3.7-3.8c0,0,2.9-1.6,4.3,1.9C228.5,73.1,226.4,71.5,226.4,71.5z"/>
	</g>
	<g>
		<path class="st0" d="M43.9,2.1c7.1,0,15.1,3.5,14.6,9.7c-0.6,6.9-8.2,7.6-11.4,7.6c-0.9,0-1.4-0.1-1.4-0.1s-1.3,1.8-5.2,4
			c0,0,0.7-2,0.4-4.9c0,0-9.5-3.6-7.3-11.1C34.6,3.7,39,2.1,43.9,2.1 M43.9,0c-6.5,0-11.1,2.5-12.4,6.7c-2,6.7,3.3,11.2,7.3,13.1
			c0,1.7-0.3,2.8-0.4,2.9l-1.7,4.9l4.6-2.5c2.7-1.5,4.3-2.8,5.1-3.7c0.2,0,0.3,0,0.5,0c7.9,0,12.9-3.5,13.5-9.5
			c0.2-2.4-0.6-4.8-2.4-6.7C55.2,2.1,49.6,0,43.9,0L43.9,0z"/>
	</g>
</g>
</svg>
